
  <svg width='894px'
       height='300px'
       viewBox='0 0 894 300'
       xmlns='http://www.w3.org/2000/svg'
       xmlns:xlink="http://www.w3.org/1999/xlink">

    <style type='text/css'>
    .keycap .border { stroke: black; stroke-width: 2; }
    .keycap .inner.border { stroke: rgba(0,0,0,.1); }
    </style>
    <defs>
      <linearGradient id="DCS">
        <stop offset="0%" stop-color="black" stop-opacity="0"/>
        <stop offset="40%" stop-color="black" stop-opacity="0.1"/>
        <stop offset="60%" stop-color="black" stop-opacity="0.1"/>
        <stop offset="100%" stop-color="black" stop-opacity="0"/>
      </linearGradient>
      <linearGradient id="SPACE" x1="0%" x2="0%" y1="0%" y2="100%">
        <stop offset="0%" stop-color="black" stop-opacity="0.1"/>
        <stop offset="20%" stop-color="black" stop-opacity="0.0"/>
        <stop offset="40%" stop-color="black" stop-opacity="0.0"/>
        <stop offset="100%" stop-color="black" stop-opacity="0.1"/>
      </linearGradient>
      <radialGradient id="DSA">
        <stop offset="0%" stop-color="black" stop-opacity="0.1"/>
        <stop offset="10%" stop-color="black" stop-opacity="0.1"/>
        <stop offset="100%" stop-color="black" stop-opacity="0"/>
      </radialGradient>
      <radialGradient id="SA" xlink:href="#DSA" />
    </defs>

    <g transform='translate(10,10)'>
      <rect width="874" height="280"
            stroke="#ddd" stroke-width="1" fill="#eeeeee" rx="6"/>
      <g transform='translate(5,5)'>

  <g class='  keycap'
  >

    <!-- Outer Border -->
    <rect x="1" y="1"
          width="52" height="52"
          rx="5" fill="#cccccc" class="outer border"/>

    <!-- Outer Fill -->
    <rect x="1" y="1"
          width="52" height="52"
          rx="5" fill="#cccccc"/>

      <!-- Inner Border -->
      <rect x="7" y="4"
            width="40" height="40"
            rx="5" fill="#fcfcfc" class="inner border"/>

      <!-- Inner Fill -->
      <rect x="7" y="4"
            width="40" height="40"
            rx="5" fill="#fcfcfc"/>

      <text x="27" y="27" text-anchor="middle" font-size="16">ESC</text>

  </g>

  <g class='  keycap'
  >

    <!-- Outer Border -->
    <rect x="55" y="1"
          width="52" height="52"
          rx="5" fill="#cccccc" class="outer border"/>

    <!-- Outer Fill -->
    <rect x="55" y="1"
          width="52" height="52"
          rx="5" fill="#cccccc"/>

      <!-- Inner Border -->
      <rect x="61" y="4"
            width="40" height="40"
            rx="5" fill="#fcfcfc" class="inner border"/>

      <!-- Inner Fill -->
      <rect x="61" y="4"
            width="40" height="40"
            rx="5" fill="#fcfcfc"/>

      <text x="81" y="20" text-anchor="middle" font-size="16">!</text>
      <text x="81" y="40" text-anchor="middle" font-size="16">1</text>

  </g>

  <g class='  keycap'
  >

    <!-- Outer Border -->
    <rect x="109" y="1"
          width="52" height="52"
          rx="5" fill="#cccccc" class="outer border"/>

    <!-- Outer Fill -->
    <rect x="109" y="1"
          width="52" height="52"
          rx="5" fill="#cccccc"/>

      <!-- Inner Border -->
      <rect x="115" y="4"
            width="40" height="40"
            rx="5" fill="#fcfcfc" class="inner border"/>

      <!-- Inner Fill -->
      <rect x="115" y="4"
            width="40" height="40"
            rx="5" fill="#fcfcfc"/>

      <text x="135" y="20" text-anchor="middle" font-size="16">@</text>
      <text x="135" y="40" text-anchor="middle" font-size="16">2</text>

  </g>

  <g class='  keycap'
  >


    <!-- Outer Border -->
    <rect x="163" y="1"
          width="52" height="52"
          rx="5" fill="#cccccc" class="outer border"/>

    <!-- Outer Fill -->
    <rect x="163" y="1"
          width="52" height="52"
          rx="5" fill="#cccccc"/>



      <!-- Inner Border -->
      <rect x="169" y="4"
            width="40" height="40"
            rx="5" fill="#fcfcfc" class="inner border"/>

      <!-- Inner Fill -->
      <rect x="169" y="4"
            width="40" height="40"
            rx="5" fill="#fcfcfc"/>

      <text x="189" y="20" text-anchor="middle" font-size="16">#</text>
      <text x="189" y="40" text-anchor="middle" font-size="16">3</text>
  </g>

  <g class='  keycap'
  >


    <!-- Outer Border -->
    <rect x="217" y="1"
          width="52" height="52"
          rx="5" fill="#cccccc" class="outer border"/>

    <!-- Outer Fill -->
    <rect x="217" y="1"
          width="52" height="52"
          rx="5" fill="#cccccc"/>



      <!-- Inner Border -->
      <rect x="223" y="4"
            width="40" height="40"
            rx="5" fill="#fcfcfc" class="inner border"/>

      <!-- Inner Fill -->
      <rect x="223" y="4"
            width="40" height="40"
            rx="5" fill="#fcfcfc"/>


      <text x="243" y="20" text-anchor="middle" font-size="16">$</text>
      <text x="243" y="40" text-anchor="middle" font-size="16">4</text>


  </g>

  <g class='  keycap'
  >


    <!-- Outer Border -->
    <rect x="271" y="1"
          width="52" height="52"
          rx="5" fill="#cccccc" class="outer border"/>

    <!-- Outer Fill -->
    <rect x="271" y="1"
          width="52" height="52"
          rx="5" fill="#cccccc"/>



      <!-- Inner Border -->
      <rect x="277" y="4"
            width="40" height="40"
            rx="5" fill="#fcfcfc" class="inner border"/>

      <!-- Inner Fill -->
      <rect x="277" y="4"
            width="40" height="40"
            rx="5" fill="#fcfcfc"/>

      <text x="297" y="20" text-anchor="middle" font-size="16">%</text>
      <text x="297" y="40" text-anchor="middle" font-size="16">5</text>





  </g>

  <g class='  keycap'
  >


    <!-- Outer Border -->
    <rect x="325" y="1"
          width="52" height="52"
          rx="5" fill="#cccccc" class="outer border"/>

    <!-- Outer Fill -->
    <rect x="325" y="1"
          width="52" height="52"
          rx="5" fill="#cccccc"/>



      <!-- Inner Border -->
      <rect x="331" y="4"
            width="40" height="40"
            rx="5" fill="#fcfcfc" class="inner border"/>

      <!-- Inner Fill -->
      <rect x="331" y="4"
            width="40" height="40"
            rx="5" fill="#fcfcfc"/>

      <text x="351" y="20" text-anchor="middle" font-size="16">^</text>
      <text x="351" y="40" text-anchor="middle" font-size="16">6</text>



  </g>

  <g class='  keycap'
  >


    <!-- Outer Border -->
    <rect x="379" y="1"
          width="52" height="52"
          rx="5" fill="#cccccc" class="outer border"/>

    <!-- Outer Fill -->
    <rect x="379" y="1"
          width="52" height="52"
          rx="5" fill="#cccccc"/>



      <!-- Inner Border -->
      <rect x="385" y="4"
            width="40" height="40"
            rx="5" fill="#fcfcfc" class="inner border"/>

      <!-- Inner Fill -->
      <rect x="385" y="4"
            width="40" height="40"
            rx="5" fill="#fcfcfc"/>

      <text x="405" y="20" text-anchor="middle" font-size="16">&amp;</text>
      <text x="405" y="40" text-anchor="middle" font-size="16">7</text>



  </g>

  <g class='  keycap'
  >


    <!-- Outer Border -->
    <rect x="433" y="1"
          width="52" height="52"
          rx="5" fill="#cccccc" class="outer border"/>

    <!-- Outer Fill -->
    <rect x="433" y="1"
          width="52" height="52"
          rx="5" fill="#cccccc"/>



      <!-- Inner Border -->
      <rect x="439" y="4"
            width="40" height="40"
            rx="5" fill="#fcfcfc" class="inner border"/>

      <!-- Inner Fill -->
      <rect x="439" y="4"
            width="40" height="40"
            rx="5" fill="#fcfcfc"/>

      <text x="459" y="20" text-anchor="middle" font-size="16">*</text>
      <text x="459" y="40" text-anchor="middle" font-size="16">8</text>




  </g>

  <g class='  keycap'
  >


    <!-- Outer Border -->
    <rect x="487" y="1"
          width="52" height="52"
          rx="5" fill="#cccccc" class="outer border"/>

    <!-- Outer Fill -->
    <rect x="487" y="1"
          width="52" height="52"
          rx="5" fill="#cccccc"/>



      <!-- Inner Border -->
      <rect x="493" y="4"
            width="40" height="40"
            rx="5" fill="#fcfcfc" class="inner border"/>

      <!-- Inner Fill -->
      <rect x="493" y="4"
            width="40" height="40"
            rx="5" fill="#fcfcfc"/>

      <text x="513" y="20" text-anchor="middle" font-size="16">(</text>
      <text x="513" y="40" text-anchor="middle" font-size="16">9</text>



  </g>

  <g class='  keycap'
  >


    <!-- Outer Border -->
    <rect x="541" y="1"
          width="52" height="52"
          rx="5" fill="#cccccc" class="outer border"/>

    <!-- Outer Fill -->
    <rect x="541" y="1"
          width="52" height="52"
          rx="5" fill="#cccccc"/>



      <!-- Inner Border -->
      <rect x="547" y="4"
            width="40" height="40"
            rx="5" fill="#fcfcfc" class="inner border"/>

      <!-- Inner Fill -->
      <rect x="547" y="4"
            width="40" height="40"
            rx="5" fill="#fcfcfc"/>


      <text x="567" y="20" text-anchor="middle" font-size="16">)</text>
      <text x="567" y="40" text-anchor="middle" font-size="16">0</text>


  </g>

  <g class='  keycap'
  >


    <!-- Outer Border -->
    <rect x="595" y="1"
          width="52" height="52"
          rx="5" fill="#cccccc" class="outer border"/>

    <!-- Outer Fill -->
    <rect x="595" y="1"
          width="52" height="52"
          rx="5" fill="#cccccc"/>



      <!-- Inner Border -->
      <rect x="601" y="4"
            width="40" height="40"
            rx="5" fill="#fcfcfc" class="inner border"/>

      <!-- Inner Fill -->
      <rect x="601" y="4"
            width="40" height="40"
            rx="5" fill="#fcfcfc"/>

      <text x="621" y="20" text-anchor="middle" font-size="16">_</text>
      <text x="621" y="40" text-anchor="middle" font-size="16">-</text>



  </g>

  <g class='  keycap'
  >


    <!-- Outer Border -->
    <rect x="649" y="1"
          width="52" height="52"
          rx="5" fill="#cccccc" class="outer border"/>

    <!-- Outer Fill -->
    <rect x="649" y="1"
          width="52" height="52"
          rx="5" fill="#cccccc"/>



      <!-- Inner Border -->
      <rect x="655" y="4"
            width="40" height="40"
            rx="5" fill="#fcfcfc" class="inner border"/>

      <!-- Inner Fill -->
      <rect x="655" y="4"
            width="40" height="40"
            rx="5" fill="#fcfcfc"/>


      <text x="675" y="20" text-anchor="middle" font-size="16">+</text>
      <text x="675" y="40" text-anchor="middle" font-size="16">=</text>


  </g>

  <g class='  keycap'
  >


    <!-- Outer Border -->
    <rect x="703" y="1"
          width="106" height="52"
          rx="5" fill="#cccccc" class="outer border"/>

    <!-- Outer Fill -->
    <rect x="703" y="1"
          width="106" height="52"
          rx="5" fill="#cccccc"/>



      <!-- Inner Border -->
      <rect x="709" y="4"
            width="94" height="40"
            rx="5" fill="#fcfcfc" class="inner border"/>

      <!-- Inner Fill -->
      <rect x="709" y="4"
            width="94" height="40"
            rx="5" fill="#fcfcfc"/>


      <text x="756" y="27" text-anchor="middle" font-size="14">BACKSPACE</text>


  </g>

  <g class='  keycap'
  >


    <!-- Outer Border -->
    <rect x="811" y="1"
          width="52" height="52"
          rx="5" fill="#cccccc" class="outer border"/>

    <!-- Outer Fill -->
    <rect x="811" y="1"
          width="52" height="52"
          rx="5" fill="#cccccc"/>



      <!-- Inner Border -->
      <rect x="817" y="4"
            width="40" height="40"
            rx="5" fill="#fcfcfc" class="inner border"/>

      <!-- Inner Fill -->
      <rect x="817" y="4"
            width="40" height="40"
            rx="5" fill="#fcfcfc"/>



      <text x="837" y="27" text-anchor="middle" font-size="16">DEL</text>

  </g>

  <g class='  keycap'
  >


    <!-- Outer Border -->
    <rect x="1" y="55"
          width="79" height="52"
          rx="5" fill="#cccccc" class="outer border"/>

    <!-- Outer Fill -->
    <rect x="1" y="55"
          width="79" height="52"
          rx="5" fill="#cccccc"/>



      <!-- Inner Border -->
      <rect x="7" y="58"
            width="67" height="40"
            rx="5" fill="#fcfcfc" class="inner border"/>

      <!-- Inner Fill -->
      <rect x="7" y="58"
            width="67" height="40"
            rx="5" fill="#fcfcfc"/>

      <text x="40" y="78" text-anchor="middle" font-size="16">TAB</text>



  </g>

  <g class='  keycap'
  >


    <!-- Outer Border -->
    <rect x="82" y="55"
          width="52" height="52"
          rx="5" fill="#cccccc" class="outer border"/>

    <!-- Outer Fill -->
    <rect x="82" y="55"
          width="52" height="52"
          rx="5" fill="#cccccc"/>



      <!-- Inner Border -->
      <rect x="88" y="58"
            width="40" height="40"
            rx="5" fill="#fcfcfc" class="inner border"/>

      <!-- Inner Fill -->
      <rect x="88" y="58"
            width="40" height="40"
            rx="5" fill="#fcfcfc"/>


      <text x="108" y="78" text-anchor="middle" font-size="16">Q</text>


  </g>

  <g class='  keycap'
  >


    <!-- Outer Border -->
    <rect x="136" y="55"
          width="52" height="52"
          rx="5" fill="#cccccc" class="outer border"/>

    <!-- Outer Fill -->
    <rect x="136" y="55"
          width="52" height="52"
          rx="5" fill="#cccccc"/>



      <!-- Inner Border -->
      <rect x="142" y="58"
            width="40" height="40"
            rx="5" fill="#fcfcfc" class="inner border"/>

      <!-- Inner Fill -->
      <rect x="142" y="58"
            width="40" height="40"
            rx="5" fill="#fcfcfc"/>

      <text x="162" y="78" text-anchor="middle" font-size="16">W</text>



  </g>

  <g class='  keycap'
  >


    <!-- Outer Border -->
    <rect x="190" y="55"
          width="52" height="52"
          rx="5" fill="#cccccc" class="outer border"/>

    <!-- Outer Fill -->
    <rect x="190" y="55"
          width="52" height="52"
          rx="5" fill="#cccccc"/>



      <!-- Inner Border -->
      <rect x="196" y="58"
            width="40" height="40"
            rx="5" fill="#fcfcfc" class="inner border"/>

      <!-- Inner Fill -->
      <rect x="196" y="58"
            width="40" height="40"
            rx="5" fill="#fcfcfc"/>


      <text x="216" y="78" text-anchor="middle" font-size="16">E</text>


  </g>

  <g class='  keycap'
  >


    <!-- Outer Border -->
    <rect x="244" y="55"
          width="52" height="52"
          rx="5" fill="#cccccc" class="outer border"/>

    <!-- Outer Fill -->
    <rect x="244" y="55"
          width="52" height="52"
          rx="5" fill="#cccccc"/>



      <!-- Inner Border -->
      <rect x="250" y="58"
            width="40" height="40"
            rx="5" fill="#fcfcfc" class="inner border"/>

      <!-- Inner Fill -->
      <rect x="250" y="58"
            width="40" height="40"
            rx="5" fill="#fcfcfc"/>


      <text x="270" y="78" text-anchor="middle" font-size="16">R</text>


  </g>

  <g class='  keycap'
  >


    <!-- Outer Border -->
    <rect x="298" y="55"
          width="52" height="52"
          rx="5" fill="#cccccc" class="outer border"/>

    <!-- Outer Fill -->
    <rect x="298" y="55"
          width="52" height="52"
          rx="5" fill="#cccccc"/>



      <!-- Inner Border -->
      <rect x="304" y="58"
            width="40" height="40"
            rx="5" fill="#fcfcfc" class="inner border"/>

      <!-- Inner Fill -->
      <rect x="304" y="58"
            width="40" height="40"
            rx="5" fill="#fcfcfc"/>


      <text x="324" y="78" text-anchor="middle" font-size="16">T</text>


  </g>

  <g class='  keycap'
  >


    <!-- Outer Border -->
    <rect x="352" y="55"
          width="52" height="52"
          rx="5" fill="#cccccc" class="outer border"/>

    <!-- Outer Fill -->
    <rect x="352" y="55"
          width="52" height="52"
          rx="5" fill="#cccccc"/>



      <!-- Inner Border -->
      <rect x="358" y="58"
            width="40" height="40"
            rx="5" fill="#fcfcfc" class="inner border"/>

      <!-- Inner Fill -->
      <rect x="358" y="58"
            width="40" height="40"
            rx="5" fill="#fcfcfc"/>


      <text x="378" y="78" text-anchor="middle" font-size="16">Y</text>


  </g>

  <g class='  keycap'
  >


    <!-- Outer Border -->
    <rect x="406" y="55"
          width="52" height="52"
          rx="5" fill="#cccccc" class="outer border"/>

    <!-- Outer Fill -->
    <rect x="406" y="55"
          width="52" height="52"
          rx="5" fill="#cccccc"/>



      <!-- Inner Border -->
      <rect x="412" y="58"
            width="40" height="40"
            rx="5" fill="#fcfcfc" class="inner border"/>

      <!-- Inner Fill -->
      <rect x="412" y="58"
            width="40" height="40"
            rx="5" fill="#fcfcfc"/>


      <text x="432" y="78" text-anchor="middle" font-size="16">U</text>


  </g>

  <g class='  keycap'
  >


    <!-- Outer Border -->
    <rect x="460" y="55"
          width="52" height="52"
          rx="5" fill="#cccccc" class="outer border"/>

    <!-- Outer Fill -->
    <rect x="460" y="55"
          width="52" height="52"
          rx="5" fill="#cccccc"/>



      <!-- Inner Border -->
      <rect x="466" y="58"
            width="40" height="40"
            rx="5" fill="#fcfcfc" class="inner border"/>

      <!-- Inner Fill -->
      <rect x="466" y="58"
            width="40" height="40"
            rx="5" fill="#fcfcfc"/>


      <text x="486" y="78" text-anchor="middle" font-size="16">I</text>


  </g>

  <g class='  keycap'
  >


    <!-- Outer Border -->
    <rect x="514" y="55"
          width="52" height="52"
          rx="5" fill="#cccccc" class="outer border"/>

    <!-- Outer Fill -->
    <rect x="514" y="55"
          width="52" height="52"
          rx="5" fill="#cccccc"/>



      <!-- Inner Border -->
      <rect x="520" y="58"
            width="40" height="40"
            rx="5" fill="#fcfcfc" class="inner border"/>

      <!-- Inner Fill -->
      <rect x="520" y="58"
            width="40" height="40"
            rx="5" fill="#fcfcfc"/>

      <text x="540" y="78" text-anchor="middle" font-size="16">O</text>



  </g>

  <g class='  keycap'
  >


    <!-- Outer Border -->
    <rect x="568" y="55"
          width="52" height="52"
          rx="5" fill="#cccccc" class="outer border"/>

    <!-- Outer Fill -->
    <rect x="568" y="55"
          width="52" height="52"
          rx="5" fill="#cccccc"/>



      <!-- Inner Border -->
      <rect x="574" y="58"
            width="40" height="40"
            rx="5" fill="#fcfcfc" class="inner border"/>

      <!-- Inner Fill -->
      <rect x="574" y="58"
            width="40" height="40"
            rx="5" fill="#fcfcfc"/>


      <text x="594" y="78" text-anchor="middle" font-size="16">P</text>


  </g>

  <g class='  keycap'
  >


    <!-- Outer Border -->
    <rect x="622" y="55"
          width="52" height="52"
          rx="5" fill="#cccccc" class="outer border"/>

    <!-- Outer Fill -->
    <rect x="622" y="55"
          width="52" height="52"
          rx="5" fill="#cccccc"/>



      <!-- Inner Border -->
      <rect x="628" y="58"
            width="40" height="40"
            rx="5" fill="#fcfcfc" class="inner border"/>

      <!-- Inner Fill -->
      <rect x="628" y="58"
            width="40" height="40"
            rx="5" fill="#fcfcfc"/>

      <text x="648" y="74" text-anchor="middle" font-size="16">{</text>
      <text x="648" y="90" text-anchor="middle" font-size="16">[</text>



  </g>

  <g class='  keycap'
  >


    <!-- Outer Border -->
    <rect x="676" y="55"
          width="52" height="52"
          rx="5" fill="#cccccc" class="outer border"/>

    <!-- Outer Fill -->
    <rect x="676" y="55"
          width="52" height="52"
          rx="5" fill="#cccccc"/>



      <!-- Inner Border -->
      <rect x="682" y="58"
            width="40" height="40"
            rx="5" fill="#fcfcfc" class="inner border"/>

      <!-- Inner Fill -->
      <rect x="682" y="58"
            width="40" height="40"
            rx="5" fill="#fcfcfc"/>


      <text x="702" y="74" text-anchor="middle" font-size="16">}</text>
      <text x="702" y="90" text-anchor="middle" font-size="16">]</text>

  </g>

  <g class='  keycap'
  >


    <!-- Outer Border -->
    <rect x="730" y="55"
          width="79" height="52"
          rx="5" fill="#cccccc" class="outer border"/>

    <!-- Outer Fill -->
    <rect x="730" y="55"
          width="79" height="52"
          rx="5" fill="#cccccc"/>



      <!-- Inner Border -->
      <rect x="736" y="58"
            width="67" height="40"
            rx="5" fill="#fcfcfc" class="inner border"/>

      <!-- Inner Fill -->
      <rect x="736" y="58"
            width="67" height="40"
            rx="5" fill="#fcfcfc"/>

      <text x="766" y="74" text-anchor="middle" font-size="16">|</text>
      <text x="766" y="90" text-anchor="middle" font-size="16">\</text>



  </g>

  <g class='  keycap'
  >


    <!-- Outer Border -->
    <rect x="811" y="55"
          width="52" height="52"
          rx="5" fill="#cccccc" class="outer border"/>

    <!-- Outer Fill -->
    <rect x="811" y="55"
          width="52" height="52"
          rx="5" fill="#cccccc"/>



      <!-- Inner Border -->
      <rect x="817" y="58"
            width="40" height="40"
            rx="5" fill="#fcfcfc" class="inner border"/>

      <!-- Inner Fill -->
      <rect x="817" y="58"
            width="40" height="40"
            rx="5" fill="#fcfcfc"/>

      <text x="837" y="78" text-anchor="middle" font-size="14">HOME</text>



  </g>

  <g class='  keycap'
  >


    <!-- Outer Border -->
    <rect x="1" y="109"
          width="92.5" height="52"
          rx="5" fill="#cccccc" class="outer border"/>

    <!-- Outer Fill -->
    <rect x="1" y="109"
          width="92.5" height="52"
          rx="5" fill="#cccccc"/>



      <!-- Inner Border -->
      <rect x="7" y="112"
            width="80.5" height="40"
            rx="5" fill="#fcfcfc" class="inner border"/>

      <!-- Inner Fill -->
      <rect x="7" y="112"
            width="80.5" height="40"
            rx="5" fill="#fcfcfc"/>


      <text x="47" y="132" text-anchor="middle" font-size="16">CMD</text>


  </g>

  <g class='  keycap'
  >


    <!-- Outer Border -->
    <rect x="95.5" y="109"
          width="52" height="52"
          rx="5" fill="#cccccc" class="outer border"/>

    <!-- Outer Fill -->
    <rect x="95.5" y="109"
          width="52" height="52"
          rx="5" fill="#cccccc"/>



      <!-- Inner Border -->
      <rect x="101.5" y="112"
            width="40" height="40"
            rx="5" fill="#fcfcfc" class="inner border"/>

      <!-- Inner Fill -->
      <rect x="101.5" y="112"
            width="40" height="40"
            rx="5" fill="#fcfcfc"/>

      <text x="121.5" y="132" text-anchor="middle" font-size="16">A</text>



  </g>

  <g class='  keycap'
  >


    <!-- Outer Border -->
    <rect x="149.5" y="109"
          width="52" height="52"
          rx="5" fill="#cccccc" class="outer border"/>

    <!-- Outer Fill -->
    <rect x="149.5" y="109"
          width="52" height="52"
          rx="5" fill="#cccccc"/>



      <!-- Inner Border -->
      <rect x="155.5" y="112"
            width="40" height="40"
            rx="5" fill="#fcfcfc" class="inner border"/>

      <!-- Inner Fill -->
      <rect x="155.5" y="112"
            width="40" height="40"
            rx="5" fill="#fcfcfc"/>


      <text x="175.5" y="132" text-anchor="middle" font-size="16">S</text>


  </g>

  <g class='  keycap'
  >


    <!-- Outer Border -->
    <rect x="203.5" y="109"
          width="52" height="52"
          rx="5" fill="#cccccc" class="outer border"/>

    <!-- Outer Fill -->
    <rect x="203.5" y="109"
          width="52" height="52"
          rx="5" fill="#cccccc"/>



      <!-- Inner Border -->
      <rect x="209.5" y="112"
            width="40" height="40"
            rx="5" fill="#fcfcfc" class="inner border"/>

      <!-- Inner Fill -->
      <rect x="209.5" y="112"
            width="40" height="40"
            rx="5" fill="#fcfcfc"/>


      <text x="229.5" y="132" text-anchor="middle" font-size="16">D</text>


  </g>

  <g class='  keycap'
  >


    <!-- Outer Border -->
    <rect x="257.5" y="109"
          width="52" height="52"
          rx="5" fill="#cccccc" class="outer border"/>

    <!-- Outer Fill -->
    <rect x="257.5" y="109"
          width="52" height="52"
          rx="5" fill="#cccccc"/>



      <!-- Inner Border -->
      <rect x="263.5" y="112"
            width="40" height="40"
            rx="5" fill="#fcfcfc" class="inner border"/>

      <!-- Inner Fill -->
      <rect x="263.5" y="112"
            width="40" height="40"
            rx="5" fill="#fcfcfc"/>


      <text x="283.5" y="132" text-anchor="middle" font-size="16">F</text>


  </g>

  <g class='  keycap'
  >


    <!-- Outer Border -->
    <rect x="311.5" y="109"
          width="52" height="52"
          rx="5" fill="#cccccc" class="outer border"/>

    <!-- Outer Fill -->
    <rect x="311.5" y="109"
          width="52" height="52"
          rx="5" fill="#cccccc"/>



      <!-- Inner Border -->
      <rect x="317.5" y="112"
            width="40" height="40"
            rx="5" fill="#fcfcfc" class="inner border"/>

      <!-- Inner Fill -->
      <rect x="317.5" y="112"
            width="40" height="40"
            rx="5" fill="#fcfcfc"/>

      <text x="337.5" y="132" text-anchor="middle" font-size="16">G</text>




  </g>

  <g class='  keycap'
  >


    <!-- Outer Border -->
    <rect x="365.5" y="109"
          width="52" height="52"
          rx="5" fill="#cccccc" class="outer border"/>

    <!-- Outer Fill -->
    <rect x="365.5" y="109"
          width="52" height="52"
          rx="5" fill="#cccccc"/>



      <!-- Inner Border -->
      <rect x="371.5" y="112"
            width="40" height="40"
            rx="5" fill="#fcfcfc" class="inner border"/>

      <!-- Inner Fill -->
      <rect x="371.5" y="112"
            width="40" height="40"
            rx="5" fill="#fcfcfc"/>


      <text x="391.5" y="132" text-anchor="middle" font-size="16">H</text>


  </g>

  <g class='  keycap'
  >


    <!-- Outer Border -->
    <rect x="419.5" y="109"
          width="52" height="52"
          rx="5" fill="#cccccc" class="outer border"/>

    <!-- Outer Fill -->
    <rect x="419.5" y="109"
          width="52" height="52"
          rx="5" fill="#cccccc"/>



      <!-- Inner Border -->
      <rect x="425.5" y="112"
            width="40" height="40"
            rx="5" fill="#fcfcfc" class="inner border"/>

      <!-- Inner Fill -->
      <rect x="425.5" y="112"
            width="40" height="40"
            rx="5" fill="#fcfcfc"/>


      <text x="445.5" y="132" text-anchor="middle" font-size="16">J</text>


  </g>

  <g class='  keycap'
  >


    <!-- Outer Border -->
    <rect x="473.5" y="109"
          width="52" height="52"
          rx="5" fill="#cccccc" class="outer border"/>

    <!-- Outer Fill -->
    <rect x="473.5" y="109"
          width="52" height="52"
          rx="5" fill="#cccccc"/>



      <!-- Inner Border -->
      <rect x="479.5" y="112"
            width="40" height="40"
            rx="5" fill="#fcfcfc" class="inner border"/>

      <!-- Inner Fill -->
      <rect x="479.5" y="112"
            width="40" height="40"
            rx="5" fill="#fcfcfc"/>

      <text x="499.5" y="132" text-anchor="middle" font-size="16">K</text>



  </g>

  <g class='  keycap'
  >


    <!-- Outer Border -->
    <rect x="527.5" y="109"
          width="52" height="52"
          rx="5" fill="#cccccc" class="outer border"/>

    <!-- Outer Fill -->
    <rect x="527.5" y="109"
          width="52" height="52"
          rx="5" fill="#cccccc"/>



      <!-- Inner Border -->
      <rect x="533.5" y="112"
            width="40" height="40"
            rx="5" fill="#fcfcfc" class="inner border"/>

      <!-- Inner Fill -->
      <rect x="533.5" y="112"
            width="40" height="40"
            rx="5" fill="#fcfcfc"/>


      <text x="553.5" y="132" text-anchor="middle" font-size="16">L</text>


  </g>

  <g class='  keycap'
  >


    <!-- Outer Border -->
    <rect x="581.5" y="109"
          width="52" height="52"
          rx="5" fill="#cccccc" class="outer border"/>

    <!-- Outer Fill -->
    <rect x="581.5" y="109"
          width="52" height="52"
          rx="5" fill="#cccccc"/>



      <!-- Inner Border -->
      <rect x="587.5" y="112"
            width="40" height="40"
            rx="5" fill="#fcfcfc" class="inner border"/>

      <!-- Inner Fill -->
      <rect x="587.5" y="112"
            width="40" height="40"
            rx="5" fill="#fcfcfc"/>


      <text x="607.5" y="128" text-anchor="middle" font-size="16">:</text>
      <text x="607.5" y="142" text-anchor="middle" font-size="16">;</text>


  </g>

  <g class='  keycap'
  >


    <!-- Outer Border -->
    <rect x="635.5" y="109"
          width="52" height="52"
          rx="5" fill="#cccccc" class="outer border"/>

    <!-- Outer Fill -->
    <rect x="635.5" y="109"
          width="52" height="52"
          rx="5" fill="#cccccc"/>



      <!-- Inner Border -->
      <rect x="641.5" y="112"
            width="40" height="40"
            rx="5" fill="#fcfcfc" class="inner border"/>

      <!-- Inner Fill -->
      <rect x="641.5" y="112"
            width="40" height="40"
            rx="5" fill="#fcfcfc"/>

      <text x="661.5" y="132" text-anchor="middle" font-size="16">"</text>
      <text x="661.5" y="152" text-anchor="middle" font-size="16">'</text>



  </g>

  <g class='  keycap'
  >


    <!-- Outer Border -->
    <rect x="689.5" y="109"
          width="119.5" height="52"
          rx="5" fill="#cccccc" class="outer border"/>

    <!-- Outer Fill -->
    <rect x="689.5" y="109"
          width="119.5" height="52"
          rx="5" fill="#cccccc"/>



      <!-- Inner Border -->
      <rect x="695.5" y="112"
            width="107.5" height="40"
            rx="5" fill="#fcfcfc" class="inner border"/>

      <!-- Inner Fill -->
      <rect x="695.5" y="112"
            width="107.5" height="40"
            rx="5" fill="#fcfcfc"/>


      <text x="750.5" y="132" text-anchor="middle" font-size="16">RETURN</text>


  </g>

  <g class='  keycap'
  >


    <!-- Outer Border -->
    <rect x="811" y="109"
          width="52" height="52"
          rx="5" fill="#cccccc" class="outer border"/>

    <!-- Outer Fill -->
    <rect x="811" y="109"
          width="52" height="52"
          rx="5" fill="#cccccc"/>



      <!-- Inner Border -->
      <rect x="817" y="112"
            width="40" height="40"
            rx="5" fill="#fcfcfc" class="inner border"/>

      <!-- Inner Fill -->
      <rect x="817" y="112"
            width="40" height="40"
            rx="5" fill="#fcfcfc"/>

      <text x="837" y="130" text-anchor="middle" font-size="16">PG</text>
      <text x="837" y="144" text-anchor="middle" font-size="16">UP</text>

  </g>

  <g class='  keycap'
  >


    <!-- Outer Border -->
    <rect x="1" y="163"
          width="119.5" height="52"
          rx="5" fill="#cccccc" class="outer border"/>

    <!-- Outer Fill -->
    <rect x="1" y="163"
          width="119.5" height="52"
          rx="5" fill="#cccccc"/>



      <!-- Inner Border -->
      <rect x="7" y="166"
            width="107.5" height="40"
            rx="5" fill="#fcfcfc" class="inner border"/>

      <!-- Inner Fill -->
      <rect x="7" y="166"
            width="107.5" height="40"
            rx="5" fill="#fcfcfc"/>

      <text x="61" y="186" text-anchor="middle" font-size="16">SHIFT</text>


  </g>

  <g class='  keycap'
  >


    <!-- Outer Border -->
    <rect x="122.5" y="163"
          width="52" height="52"
          rx="5" fill="#cccccc" class="outer border"/>

    <!-- Outer Fill -->
    <rect x="122.5" y="163"
          width="52" height="52"
          rx="5" fill="#cccccc"/>



      <!-- Inner Border -->
      <rect x="128.5" y="166"
            width="40" height="40"
            rx="5" fill="#fcfcfc" class="inner border"/>

      <!-- Inner Fill -->
      <rect x="128.5" y="166"
            width="40" height="40"
            rx="5" fill="#fcfcfc"/>


      <text x="148.5" y="186" text-anchor="middle" font-size="16">Z</text>


  </g>

  <g class='  keycap'
  >


    <!-- Outer Border -->
    <rect x="176.5" y="163"
          width="52" height="52"
          rx="5" fill="#cccccc" class="outer border"/>

    <!-- Outer Fill -->
    <rect x="176.5" y="163"
          width="52" height="52"
          rx="5" fill="#cccccc"/>



      <!-- Inner Border -->
      <rect x="182.5" y="166"
            width="40" height="40"
            rx="5" fill="#fcfcfc" class="inner border"/>

      <!-- Inner Fill -->
      <rect x="182.5" y="166"
            width="40" height="40"
            rx="5" fill="#fcfcfc"/>


      <text x="202.5" y="186" text-anchor="middle" font-size="16">X</text>


  </g>

  <g class='  keycap'
  >


    <!-- Outer Border -->
    <rect x="230.5" y="163"
          width="52" height="52"
          rx="5" fill="#cccccc" class="outer border"/>

    <!-- Outer Fill -->
    <rect x="230.5" y="163"
          width="52" height="52"
          rx="5" fill="#cccccc"/>



      <!-- Inner Border -->
      <rect x="236.5" y="166"
            width="40" height="40"
            rx="5" fill="#fcfcfc" class="inner border"/>

      <!-- Inner Fill -->
      <rect x="236.5" y="166"
            width="40" height="40"
            rx="5" fill="#fcfcfc"/>


      <text x="256.5" y="186" text-anchor="middle" font-size="16">C</text>


  </g>

  <g class='  keycap'
  >


    <!-- Outer Border -->
    <rect x="284.5" y="163"
          width="52" height="52"
          rx="5" fill="#cccccc" class="outer border"/>

    <!-- Outer Fill -->
    <rect x="284.5" y="163"
          width="52" height="52"
          rx="5" fill="#cccccc"/>



      <!-- Inner Border -->
      <rect x="290.5" y="166"
            width="40" height="40"
            rx="5" fill="#fcfcfc" class="inner border"/>

      <!-- Inner Fill -->
      <rect x="290.5" y="166"
            width="40" height="40"
            rx="5" fill="#fcfcfc"/>


      <text x="310.5" y="186" text-anchor="middle" font-size="16">V</text>


  </g>

  <g class='  keycap'
  >


    <!-- Outer Border -->
    <rect x="338.5" y="163"
          width="52" height="52"
          rx="5" fill="#cccccc" class="outer border"/>

    <!-- Outer Fill -->
    <rect x="338.5" y="163"
          width="52" height="52"
          rx="5" fill="#cccccc"/>



      <!-- Inner Border -->
      <rect x="344.5" y="166"
            width="40" height="40"
            rx="5" fill="#fcfcfc" class="inner border"/>

      <!-- Inner Fill -->
      <rect x="344.5" y="166"
            width="40" height="40"
            rx="5" fill="#fcfcfc"/>

      <text x="364.5" y="186" text-anchor="middle" font-size="16">B</text>
  </g>

  <g class='  keycap'
  >


    <!-- Outer Border -->
    <rect x="392.5" y="163"
          width="52" height="52"
          rx="5" fill="#cccccc" class="outer border"/>

    <!-- Outer Fill -->
    <rect x="392.5" y="163"
          width="52" height="52"
          rx="5" fill="#cccccc"/>



      <!-- Inner Border -->
      <rect x="398.5" y="166"
            width="40" height="40"
            rx="5" fill="#fcfcfc" class="inner border"/>

      <!-- Inner Fill -->
      <rect x="398.5" y="166"
            width="40" height="40"
            rx="5" fill="#fcfcfc"/>


      <text x="418.5" y="186" text-anchor="middle" font-size="16">N</text>


  </g>

  <g class='  keycap'
  >


    <!-- Outer Border -->
    <rect x="446.5" y="163"
          width="52" height="52"
          rx="5" fill="#cccccc" class="outer border"/>

    <!-- Outer Fill -->
    <rect x="446.5" y="163"
          width="52" height="52"
          rx="5" fill="#cccccc"/>



      <!-- Inner Border -->
      <rect x="452.5" y="166"
            width="40" height="40"
            rx="5" fill="#fcfcfc" class="inner border"/>

      <!-- Inner Fill -->
      <rect x="452.5" y="166"
            width="40" height="40"
            rx="5" fill="#fcfcfc"/>

      <text x="472.5" y="186" text-anchor="middle" font-size="16">M</text>
  </g>

  <g class='  keycap'
  >


    <!-- Outer Border -->
    <rect x="500.5" y="163"
          width="52" height="52"
          rx="5" fill="#cccccc" class="outer border"/>

    <!-- Outer Fill -->
    <rect x="500.5" y="163"
          width="52" height="52"
          rx="5" fill="#cccccc"/>



      <!-- Inner Border -->
      <rect x="506.5" y="166"
            width="40" height="40"
            rx="5" fill="#fcfcfc" class="inner border"/>

      <!-- Inner Fill -->
      <rect x="506.5" y="166"
            width="40" height="40"
            rx="5" fill="#fcfcfc"/>

      <text x="526.5" y="180" text-anchor="middle" font-size="16">&lt;</text>
      <text x="526.5" y="196" text-anchor="middle" font-size="16">,</text>
  </g>

  <g class='  keycap'
  >


    <!-- Outer Border -->
    <rect x="554.5" y="163"
          width="52" height="52"
          rx="5" fill="#cccccc" class="outer border"/>

    <!-- Outer Fill -->
    <rect x="554.5" y="163"
          width="52" height="52"
          rx="5" fill="#cccccc"/>



      <!-- Inner Border -->
      <rect x="560.5" y="166"
            width="40" height="40"
            rx="5" fill="#fcfcfc" class="inner border"/>

      <!-- Inner Fill -->
      <rect x="560.5" y="166"
            width="40" height="40"
            rx="5" fill="#fcfcfc"/>

      <text x="580.5" y="180" text-anchor="middle" font-size="16">&gt;</text>
      <text x="580.5" y="196" text-anchor="middle" font-size="16">.</text>


  </g>

  <g class='  keycap'
  >


    <!-- Outer Border -->
    <rect x="608.5" y="163"
          width="52" height="52"
          rx="5" fill="#cccccc" class="outer border"/>

    <!-- Outer Fill -->
    <rect x="608.5" y="163"
          width="52" height="52"
          rx="5" fill="#cccccc"/>



      <!-- Inner Border -->
      <rect x="614.5" y="166"
            width="40" height="40"
            rx="5" fill="#fcfcfc" class="inner border"/>

      <!-- Inner Fill -->
      <rect x="614.5" y="166"
            width="40" height="40"
            rx="5" fill="#fcfcfc"/>

      <text x="634.5" y="180" text-anchor="middle" font-size="16">?</text>
      <text x="634.5" y="196" text-anchor="middle" font-size="16">/</text>

  </g>

  <g class='  keycap'
  >


    <!-- Outer Border -->
    <rect x="662.5" y="163"
          width="92.5" height="52"
          rx="5" fill="#cccccc" class="outer border"/>

    <!-- Outer Fill -->
    <rect x="662.5" y="163"
          width="92.5" height="52"
          rx="5" fill="#cccccc"/>



      <!-- Inner Border -->
      <rect x="668.5" y="166"
            width="80.5" height="40"
            rx="5" fill="#fcfcfc" class="inner border"/>

      <!-- Inner Fill -->
      <rect x="668.5" y="166"
            width="80.5" height="40"
            rx="5" fill="#fcfcfc"/>

      <text x="708.5" y="186" text-anchor="middle" font-size="16">SHIFT</text>

  </g>

  <g class='  keycap'
  >


    <!-- Outer Border -->
    <rect x="757" y="163"
          width="52" height="52"
          rx="5" fill="#cccccc" class="outer border"/>

    <!-- Outer Fill -->
    <rect x="757" y="163"
          width="52" height="52"
          rx="5" fill="#cccccc"/>



      <!-- Inner Border -->
      <rect x="763" y="166"
            width="40" height="40"
            rx="5" fill="#fcfcfc" class="inner border"/>

      <!-- Inner Fill -->
      <rect x="763" y="166"
            width="40" height="40"
            rx="5" fill="#fcfcfc"/>

      <text x="783" y="186" text-anchor="middle" font-size="16">UP</text>

  </g>

  <g class='  keycap'
  >


    <!-- Outer Border -->
    <rect x="811" y="163"
          width="52" height="52"
          rx="5" fill="#cccccc" class="outer border"/>

    <!-- Outer Fill -->
    <rect x="811" y="163"
          width="52" height="52"
          rx="5" fill="#cccccc"/>



      <!-- Inner Border -->
      <rect x="817" y="166"
            width="40" height="40"
            rx="5" fill="#fcfcfc" class="inner border"/>

      <!-- Inner Fill -->
      <rect x="817" y="166"
            width="40" height="40"
            rx="5" fill="#fcfcfc"/>

      <text x="837" y="183" text-anchor="middle" font-size="16">PG</text>
      <text x="837" y="196" text-anchor="middle" font-size="16">DN</text>

  </g>

  <g class='  keycap'
  >


    <!-- Outer Border -->
    <rect x="1" y="217"
          width="65.5" height="52"
          rx="5" fill="#cccccc" class="outer border"/>

    <!-- Outer Fill -->
    <rect x="1" y="217"
          width="65.5" height="52"
          rx="5" fill="#cccccc"/>



      <!-- Inner Border -->
      <rect x="7" y="220"
            width="53.5" height="40"
            rx="5" fill="#fcfcfc" class="inner border"/>

      <!-- Inner Fill -->
      <rect x="7" y="220"
            width="53.5" height="40"
            rx="5" fill="#fcfcfc"/>

      <text x="33.5" y="240" text-anchor="middle" font-size="16">CTRL</text>

  </g>

  <g class='  keycap'
  >


    <!-- Outer Border -->
    <rect x="68.5" y="217"
          width="65.5" height="52"
          rx="5" fill="#cccccc" class="outer border"/>

    <!-- Outer Fill -->
    <rect x="68.5" y="217"
          width="65.5" height="52"
          rx="5" fill="#cccccc"/>



      <!-- Inner Border -->
      <rect x="74.5" y="220"
            width="53.5" height="40"
            rx="5" fill="#fcfcfc" class="inner border"/>

      <!-- Inner Fill -->
      <rect x="74.5" y="220"
            width="53.5" height="40"
            rx="5" fill="#fcfcfc"/>

      <text x="100.5" y="240" text-anchor="middle" font-size="16">SUPER</text>
  </g>

  <g class='  keycap'
  >


    <!-- Outer Border -->
    <rect x="136" y="217"
          width="65.5" height="52"
          rx="5" fill="#cccccc" class="outer border"/>

    <!-- Outer Fill -->
    <rect x="136" y="217"
          width="65.5" height="52"
          rx="5" fill="#cccccc"/>



      <!-- Inner Border -->
      <rect x="142" y="220"
            width="53.5" height="40"
            rx="5" fill="#fcfcfc" class="inner border"/>

      <!-- Inner Fill -->
      <rect x="142" y="220"
            width="53.5" height="40"
            rx="5" fill="#fcfcfc"/>

      <text x="168.5" y="240" text-anchor="middle" font-size="16">ALT</text>
  </g>

  <g class='  keycap'
  >


    <!-- Outer Border -->
    <rect x="203.5" y="217"
          width="335.5" height="52"
          rx="5" fill="#cccccc" class="outer border"/>

    <!-- Outer Fill -->
    <rect x="203.5" y="217"
          width="335.5" height="52"
          rx="5" fill="#cccccc"/>



      <!-- Inner Border -->
      <rect x="209.5" y="220"
            width="323.5" height="40"
            rx="5" fill="#fcfcfc" class="inner border"/>

      <!-- Inner Fill -->
      <rect x="209.5" y="220"
            width="323.5" height="40"
            rx="5" fill="#fcfcfc"/>

  </g>

  <g class='  keycap'
  >


    <!-- Outer Border -->
    <rect x="541" y="217"
          width="65.5" height="52"
          rx="5" fill="#cccccc" class="outer border"/>

    <!-- Outer Fill -->
    <rect x="541" y="217"
          width="65.5" height="52"
          rx="5" fill="#cccccc"/>



      <!-- Inner Border -->
      <rect x="547" y="220"
            width="53.5" height="40"
            rx="5" fill="#fcfcfc" class="inner border"/>

      <!-- Inner Fill -->
      <rect x="547" y="220"
            width="53.5" height="40"
            rx="5" fill="#fcfcfc"/>

      <text x="573.5" y="240" text-anchor="middle" font-size="16">ALT</text>

  </g>

  <g class='  keycap'
  >


    <!-- Outer Border -->
    <rect x="608.5" y="217"
          width="65.5" height="52"
          rx="5" fill="#cccccc" class="outer border"/>

    <!-- Outer Fill -->
    <rect x="608.5" y="217"
          width="65.5" height="52"
          rx="5" fill="#cccccc"/>



      <!-- Inner Border -->
      <rect x="614.5" y="220"
            width="53.5" height="40"
            rx="5" fill="#fcfcfc" class="inner border"/>

      <!-- Inner Fill -->
      <rect x="614.5" y="220"
            width="53.5" height="40"
            rx="5" fill="#fcfcfc"/>

      <text x="640.5" y="240" text-anchor="middle" font-size="16">FN</text>
  </g>

  <g class='  keycap'
  >


    <!-- Outer Border -->
    <rect x="703" y="217"
          width="52" height="52"
          rx="5" fill="#cccccc" class="outer border"/>

    <!-- Outer Fill -->
    <rect x="703" y="217"
          width="52" height="52"
          rx="5" fill="#cccccc"/>



      <!-- Inner Border -->
      <rect x="709" y="220"
            width="40" height="40"
            rx="5" fill="#fcfcfc" class="inner border"/>

      <!-- Inner Fill -->
      <rect x="709" y="220"
            width="40" height="40"
            rx="5" fill="#fcfcfc"/>

      <text x="729.5" y="240" text-anchor="middle" font-size="16">LEFT</text>
  </g>

  <g class='  keycap'
  >


    <!-- Outer Border -->
    <rect x="757" y="217"
          width="52" height="52"
          rx="5" fill="#cccccc" class="outer border"/>

    <!-- Outer Fill -->
    <rect x="757" y="217"
          width="52" height="52"
          rx="5" fill="#cccccc"/>



      <!-- Inner Border -->
      <rect x="763" y="220"
            width="40" height="40"
            rx="5" fill="#fcfcfc" class="inner border"/>

      <!-- Inner Fill -->
      <rect x="763" y="220"
            width="40" height="40"
            rx="5" fill="#fcfcfc"/>

      <text x="783" y="240" text-anchor="middle" font-size="16">DOWN</text>
  </g>

  <g class='  keycap'
  >


    <!-- Outer Border -->
    <rect x="811" y="217"
          width="52" height="52"
          rx="5" fill="#cccccc" class="outer border"/>

    <!-- Outer Fill -->
    <rect x="811" y="217"
          width="52" height="52"
          rx="5" fill="#cccccc"/>



      <!-- Inner Border -->
      <rect x="817" y="220"
            width="40" height="40"
            rx="5" fill="#fcfcfc" class="inner border"/>

      <!-- Inner Fill -->
      <rect x="817" y="220"
            width="40" height="40"
            rx="5" fill="#fcfcfc"/>

      <text x="837" y="240" text-anchor="middle" font-size="16">RIGHT</text>
  </g>

      </g>
    </g>
  </svg>
